<svg width="31" height="30" viewBox="0 0 31 30" fill="none" xmlns="http://www.w3.org/2000/svg">
<path d="M15.25 0.75C6.9625 0.75 0.25 7.29251 0.25 15.3616C0.25 21.8186 4.5475 27.2943 10.5062 29.2248C11.2562 29.3623 11.5312 28.9101 11.5312 28.5222C11.5312 28.1753 11.5187 27.2558 11.5125 26.0378C7.34 26.9188 6.46 24.0775 6.46 24.0775C5.7775 22.3911 4.79125 21.9401 4.79125 21.9401C3.4325 21.0343 4.89625 21.0528 4.89625 21.0528C6.4025 21.1545 7.19375 22.5584 7.19375 22.5584C8.53125 24.7925 10.705 24.1469 11.5625 23.7739C11.6975 22.8285 12.0838 22.1854 12.5125 21.8199C9.18125 21.4543 5.68 20.1979 5.68 14.5996C5.68 13.0048 6.26125 11.7013 7.22375 10.679C7.055 10.3097 6.54875 8.82405 7.355 6.81174C7.355 6.81174 8.61125 6.42018 11.48 8.30982C12.68 7.98517 13.955 7.82409 15.23 7.81666C16.505 7.82409 17.78 7.98517 18.98 8.30982C21.83 6.42018 23.0862 6.81174 23.0862 6.81174C23.8925 8.82405 23.3862 10.3097 23.2362 10.679C24.1925 11.7013 24.7737 13.0048 24.7737 14.5996C24.7737 20.2127 21.2675 21.4481 17.93 21.8075C18.455 22.2461 18.9425 23.142 18.9425 24.5112C18.9425 26.4665 18.9237 28.0377 18.9237 28.5123C18.9237 28.8952 19.1862 29.3524 19.955 29.2062C25.9562 27.2881 30.25 21.8087 30.25 15.3616C30.25 7.29251 23.5337 0.75 15.25 0.75Z" fill="white"/>
</svg>
